<?xml version="1.0" encoding="utf-8"?>
<!-- Generator: Adobe Illustrator 21.0.0, SVG Export Plug-In . SVG Version: 6.00 Build 0)  -->
<svg version="1.1" id="레이어_1" xmlns="http://www.w3.org/2000/svg" xmlns:xlink="http://www.w3.org/1999/xlink" x="0px"
	 y="0px" viewBox="0 0 56 50" style="enable-background:new 0 0 56 50;" xml:space="preserve">
<style type="text/css">
	.st0{fill:#8A85F1;}
	.st1{fill:#FFFFFF;}
</style>
<g>
	<path class="st0" d="M54.1,50H0V0h54.1C55.1,0,56,0.8,56,1.7v46.6C56,49.2,55.1,50,54.1,50z"/>
	<path class="st1" d="M46.6,38.2L39,30.6c4.1-5.2,3.7-12.8-1.1-17.6c-5.2-5.2-13.7-5.2-18.9,0s-5.2,13.7,0,18.9
		c4.8,4.8,12.4,5.2,17.6,1.1l7.7,7.7c0.4,0.4,1.2,0.4,1.6,0l0.8-0.8C47.1,39.4,47.1,38.7,46.6,38.2z M20.9,29.8
		c-4.1-4.1-4.1-10.8,0-14.9s10.8-4.1,14.9,0c4.1,4.1,4.1,10.8,0,14.9S25.1,33.9,20.9,29.8z"/>
</g>
</svg>
