<?xml version="1.0" encoding="utf-8"?>
<!-- Generator: Adobe Illustrator 21.0.0, SVG Export Plug-In . SVG Version: 6.00 Build 0)  -->
<svg version="1.1" id="레이어_1" xmlns="http://www.w3.org/2000/svg" xmlns:xlink="http://www.w3.org/1999/xlink" x="0px"
	 y="0px" viewBox="0 0 90.8 52.5" style="enable-background:new 0 0 90.8 52.5;" xml:space="preserve">
<style type="text/css">
	.st0{fill:#337AB7;}
	.st1{fill:#FFFFFF;}
</style>
<g>
	<path class="st0" d="M87.7,52.5H0V0h87.7c1.7,0,3.1,0.8,3.1,1.8v48.9C90.8,51.7,89.4,52.5,87.7,52.5z"/>
	<path class="st1" d="M63.5,40.1L55.4,32c4.3-5.5,3.9-13.4-1.2-18.5C48.7,8,39.8,8,34.4,13.5s-5.5,14.4,0,19.8
		c5.1,5.1,13,5.4,18.5,1.2l8.1,8.1c0.5,0.5,1.2,0.5,1.7,0l0.8-0.8C64.1,41.4,64.1,40.6,63.5,40.1z M36.5,31.3
		c-4.3-4.3-4.3-11.3,0-15.7s11.3-4.3,15.7,0c4.3,4.3,4.3,11.3,0,15.7S41,35.6,36.5,31.3z"/>
</g>
</svg>
